<svg xmlns="http://www.w3.org/2000/svg" width="1000" height="150" viewBox="0 0 1000 150" font-family="ui-monospace, SFMono-Regular, Menlo, Consolas, monospace">
  <defs>
    <linearGradient id="fsky" x1="0" y1="0" x2="0" y2="1">
      <stop offset="0" stop-color="#0a0e14" stop-opacity="0"/>
      <stop offset="0.55" stop-color="#0a0e14" stop-opacity="0.55"/>
      <stop offset="1" stop-color="#080b10"/>
    </linearGradient>
    <radialGradient id="fglow" cx="0.5" cy="1" r="0.9">
      <stop offset="0" stop-color="#1f6feb" stop-opacity="0.3"/>
      <stop offset="1" stop-color="#1f6feb" stop-opacity="0"/>
    </radialGradient>
    <linearGradient id="fpanel" x1="0" y1="0" x2="0" y2="1"><stop offset="0" stop-color="#0e3a5c"/><stop offset="1" stop-color="#0a2540"/></linearGradient>
    <linearGradient id="hl" x1="0" y1="0" x2="1" y2="0"><stop offset="0" stop-color="#000"/><stop offset="1" stop-color="#000" stop-opacity="0"/></linearGradient>
    <linearGradient id="hr" x1="0" y1="0" x2="1" y2="0"><stop offset="0" stop-color="#000" stop-opacity="0"/><stop offset="1" stop-color="#000"/></linearGradient>
    <linearGradient id="htp" x1="0" y1="0" x2="0" y2="1"><stop offset="0" stop-color="#000"/><stop offset="1" stop-color="#000" stop-opacity="0"/></linearGradient>
    <mask id="hfade">
      <rect width="1000" height="150" fill="#fff"/>
      <rect x="0" width="110" height="150" fill="url(#hl)"/>
      <rect x="890" width="110" height="150" fill="url(#hr)"/>
      <rect x="0" y="0" width="1000" height="34" fill="url(#htp)"/>
    </mask>
  </defs>

  <g mask="url(#hfade)">
    <rect width="1000" height="150" fill="url(#fsky)"/>
    <rect x="0" y="70" width="1000" height="120" fill="url(#fglow)"/>

    <!-- stars -->
    <g fill="#9fb4d8">
      <circle cx="140" cy="30" r="1.2"><animate attributeName="opacity" values="0.2;1;0.2" dur="3s" repeatCount="indefinite"/></circle>
      <circle cx="430" cy="22" r="1"><animate attributeName="opacity" values="1;0.2;1" dur="2.6s" repeatCount="indefinite"/></circle>
      <circle cx="700" cy="34" r="1.3"><animate attributeName="opacity" values="0.3;1;0.3" dur="3.4s" repeatCount="indefinite"/></circle>
      <circle cx="880" cy="24" r="1"><animate attributeName="opacity" values="1;0.25;1" dur="2.9s" repeatCount="indefinite"/></circle>
    </g>

    <!-- slow satellite -->
    <g>
      <animateTransform attributeName="transform" type="translate" from="1120 0" to="-140 0" dur="34s" repeatCount="indefinite"/>
      <g transform="translate(0,40)">
        <rect x="-7" y="-5" width="14" height="10" rx="2" fill="#161b22" stroke="#30363d"/>
        <rect x="-26" y="-4" width="16" height="8" rx="1" fill="url(#fpanel)" stroke="#1f6feb" stroke-opacity="0.6"/>
        <rect x="10" y="-4" width="16" height="8" rx="1" fill="url(#fpanel)" stroke="#1f6feb" stroke-opacity="0.6"/>
        <circle cx="0" cy="-9" r="1.4" fill="#f2cc60"><animate attributeName="opacity" values="1;0.2;1" dur="1.2s" repeatCount="indefinite"/></circle>
      </g>
    </g>

    <!-- ground -->
    <line x1="0" y1="118" x2="1000" y2="118" stroke="#1f6feb" stroke-opacity="0.35"/>
    <g fill="#0f1826" stroke="#1f2d3d"><ellipse cx="250" cy="132" rx="12" ry="3"/><ellipse cx="760" cy="138" rx="14" ry="3.5"/></g>

    <!-- comms towers with expanding signal rings -->
    <g transform="translate(180,118)">
      <line x1="0" y1="0" x2="0" y2="-40" stroke="#3d4b5c" stroke-width="3"/>
      <line x1="0" y1="-30" x2="-9" y2="-16" stroke="#3d4b5c" stroke-width="2"/>
      <line x1="0" y1="-30" x2="9" y2="-16" stroke="#3d4b5c" stroke-width="2"/>
      <circle cx="0" cy="-42" r="2.4" fill="#39d353"><animate attributeName="opacity" values="1;0.2;1" dur="1s" repeatCount="indefinite"/></circle>
      <g fill="none" stroke="#22d3ee">
        <circle cx="0" cy="-42" r="6"><animate attributeName="r" values="6;30" dur="2.4s" repeatCount="indefinite"/><animate attributeName="opacity" values="0.7;0" dur="2.4s" repeatCount="indefinite"/></circle>
        <circle cx="0" cy="-42" r="6"><animate attributeName="r" values="6;30" dur="2.4s" begin="1.2s" repeatCount="indefinite"/><animate attributeName="opacity" values="0.7;0" dur="2.4s" begin="1.2s" repeatCount="indefinite"/></circle>
      </g>
    </g>
    <g transform="translate(820,118)">
      <line x1="0" y1="0" x2="0" y2="-34" stroke="#3d4b5c" stroke-width="3"/>
      <line x1="0" y1="-26" x2="-8" y2="-14" stroke="#3d4b5c" stroke-width="2"/>
      <line x1="0" y1="-26" x2="8" y2="-14" stroke="#3d4b5c" stroke-width="2"/>
      <circle cx="0" cy="-36" r="2.2" fill="#f2cc60"><animate attributeName="opacity" values="0.2;1;0.2" dur="1.3s" repeatCount="indefinite"/></circle>
      <g fill="none" stroke="#818cf8">
        <circle cx="0" cy="-36" r="6"><animate attributeName="r" values="6;26" dur="2.8s" begin="0.6s" repeatCount="indefinite"/><animate attributeName="opacity" values="0.6;0" dur="2.8s" begin="0.6s" repeatCount="indefinite"/></circle>
      </g>
    </g>

    <!-- rover convoy -->
    <g>
      <animateTransform attributeName="transform" type="translate" from="-140 0" to="1140 0" dur="30s" repeatCount="indefinite"/>
      <g transform="translate(0,118)">
        <animateTransform attributeName="transform" type="translate" values="0 118; 0 117; 0 118" dur="0.8s" repeatCount="indefinite" additive="sum"/>
        <rect x="-26" y="-16" width="52" height="13" rx="4" fill="#161b22" stroke="#30363d"/>
        <rect x="-20" y="-24" width="40" height="7" rx="2" fill="url(#fpanel)" stroke="#1f6feb" stroke-opacity="0.6"/>
        <line x1="14" y1="-24" x2="14" y2="-36" stroke="#3d4b5c" stroke-width="2.5"/>
        <circle cx="14" cy="-38" r="1.8" fill="#22d3ee"><animate attributeName="opacity" values="1;0.3;1" dur="1.1s" repeatCount="indefinite"/></circle>
        <g transform="translate(-16,0)"><circle r="7" fill="#0f1826" stroke="#4b5563" stroke-width="2"/><g><animateTransform attributeName="transform" type="rotate" from="0" to="360" dur="1s" repeatCount="indefinite"/><line x1="-7" y1="0" x2="7" y2="0" stroke="#6b7686" stroke-width="1.6"/><line x1="0" y1="-7" x2="0" y2="7" stroke="#6b7686" stroke-width="1.6"/></g></g>
        <g transform="translate(16,0)"><circle r="7" fill="#0f1826" stroke="#4b5563" stroke-width="2"/><g><animateTransform attributeName="transform" type="rotate" from="0" to="360" dur="1s" repeatCount="indefinite"/><line x1="-7" y1="0" x2="7" y2="0" stroke="#6b7686" stroke-width="1.6"/><line x1="0" y1="-7" x2="0" y2="7" stroke="#6b7686" stroke-width="1.6"/></g></g>
      </g>
    </g>

    <!-- status line -->
    <text x="500" y="146" fill="#39d353" font-size="11" text-anchor="middle" opacity="0.85">◦ all systems online</text>
  </g>
</svg>
